<svg viewBox="0 0 20 20" fill="currentColor" xmlns="http://www.w3.org/2000/svg">
  <path d="M10 2a1 1 0 011 1v1.5a1 1 0 11-2 0V3a1 1 0 011-1zm0 13a3.5 3.5 0 100-7 3.5 3.5 0 000 7zm7-4a1 1 0 010 2h-1.5a1 1 0 110-2H17zM4.5 11a1 1 0 110 2H3a1 1 0 110-2h1.5zM15.95 6.05a1 1 0 010 1.414L14.89 8.52a1 1 0 11-1.414-1.414l1.06-1.06a1 1 0 011.414 0zM6.52 14.89a1 1 0 010 1.414l-1.06 1.06a1 1 0 11-1.414-1.414l1.06-1.06a1 1 0 011.414 0zM15.95 13.95a1 1 0 011.414 0l1.06 1.06a1 1 0 11-1.414 1.414l-1.06-1.06a1 1 0 010-1.414zM6.52 5.11a1 1 0 011.414 0l1.06 1.06A1 1 0 017.58 7.58l-1.06-1.06a1 1 0 010-1.414zM10 16a1 1 0 011 1V18.5a1 1 0 11-2 0V17a1 1 0 011-1z"/>
</svg>
